<svg id="visual" viewBox="0 0 900 600" width="900" height="600" xmlns="http://www.w3.org/2000/svg" xmlns:xlink="http://www.w3.org/1999/xlink" version="1.1"><rect x="0" y="0" width="900" height="600" fill="#2BAE66"></rect><defs><linearGradient id="grad1_0" x1="33.3%" y1="0%" x2="100%" y2="100%"><stop offset="20%" stop-color="#ffffff" stop-opacity="1"></stop><stop offset="80%" stop-color="#ffffff" stop-opacity="1"></stop></linearGradient></defs><defs><linearGradient id="grad1_1" x1="33.3%" y1="0%" x2="100%" y2="100%"><stop offset="20%" stop-color="#ffffff" stop-opacity="1"></stop><stop offset="80%" stop-color="#d0ebd7" stop-opacity="1"></stop></linearGradient></defs><defs><linearGradient id="grad1_2" x1="33.3%" y1="0%" x2="100%" y2="100%"><stop offset="20%" stop-color="#a0d7b0" stop-opacity="1"></stop><stop offset="80%" stop-color="#d0ebd7" stop-opacity="1"></stop></linearGradient></defs><defs><linearGradient id="grad1_3" x1="33.3%" y1="0%" x2="100%" y2="100%"><stop offset="20%" stop-color="#a0d7b0" stop-opacity="1"></stop><stop offset="80%" stop-color="#6ec38b" stop-opacity="1"></stop></linearGradient></defs><defs><linearGradient id="grad1_4" x1="33.3%" y1="0%" x2="100%" y2="100%"><stop offset="20%" stop-color="#2bae66" stop-opacity="1"></stop><stop offset="80%" stop-color="#6ec38b" stop-opacity="1"></stop></linearGradient></defs><defs><linearGradient id="grad2_0" x1="0%" y1="0%" x2="66.7%" y2="100%"><stop offset="20%" stop-color="#ffffff" stop-opacity="1"></stop><stop offset="80%" stop-color="#ffffff" stop-opacity="1"></stop></linearGradient></defs><defs><linearGradient id="grad2_1" x1="0%" y1="0%" x2="66.7%" y2="100%"><stop offset="20%" stop-color="#d0ebd7" stop-opacity="1"></stop><stop offset="80%" stop-color="#ffffff" stop-opacity="1"></stop></linearGradient></defs><defs><linearGradient id="grad2_2" x1="0%" y1="0%" x2="66.7%" y2="100%"><stop offset="20%" stop-color="#d0ebd7" stop-opacity="1"></stop><stop offset="80%" stop-color="#a0d7b0" stop-opacity="1"></stop></linearGradient></defs><defs><linearGradient id="grad2_3" x1="0%" y1="0%" x2="66.7%" y2="100%"><stop offset="20%" stop-color="#6ec38b" stop-opacity="1"></stop><stop offset="80%" stop-color="#a0d7b0" stop-opacity="1"></stop></linearGradient></defs><defs><linearGradient id="grad2_4" x1="0%" y1="0%" x2="66.7%" y2="100%"><stop offset="20%" stop-color="#6ec38b" stop-opacity="1"></stop><stop offset="80%" stop-color="#2bae66" stop-opacity="1"></stop></linearGradient></defs><g transform="translate(900, 0)"><path d="M0 486.7C-64.4 474.6 -128.7 462.4 -179.1 432.4C-229.5 402.4 -265.9 354.5 -313.2 313.2C-360.6 272 -419 237.4 -449.7 186.3C-480.4 135.2 -483.6 67.6 -486.7 0L0 0Z" fill="#51b978"></path><path d="M0 389.4C-51.5 379.7 -103 369.9 -143.3 345.9C-183.6 321.9 -212.7 283.6 -250.6 250.6C-288.5 217.6 -335.2 189.9 -359.8 149C-384.4 108.1 -386.9 54.1 -389.4 0L0 0Z" fill="#88cd9d"></path><path d="M0 292C-38.6 284.7 -77.2 277.4 -107.5 259.4C-137.7 241.4 -159.5 212.7 -187.9 187.9C-216.4 163.2 -251.4 142.4 -269.8 111.8C-288.3 81.1 -290.2 40.5 -292 0L0 0Z" fill="#b8e2c4"></path><path d="M0 194.7C-25.7 189.8 -51.5 185 -71.6 173C-91.8 160.9 -106.4 141.8 -125.3 125.3C-144.2 108.8 -167.6 95 -179.9 74.5C-192.2 54.1 -193.4 27 -194.7 0L0 0Z" fill="#e8f5eb"></path><path d="M0 97.3C-12.9 94.9 -25.7 92.5 -35.8 86.5C-45.9 80.5 -53.2 70.9 -62.6 62.6C-72.1 54.4 -83.8 47.5 -89.9 37.3C-96.1 27 -96.7 13.5 -97.3 0L0 0Z" fill="#ffffff"></path></g><g transform="translate(0, 600)"><path d="M0 -486.7C71.2 -484.9 142.3 -483 183.7 -443.5C225.1 -404 236.6 -326.9 282.8 -282.8C329.1 -238.8 409.9 -227.9 449.7 -186.3C489.5 -144.6 488.1 -72.3 486.7 0L0 0Z" fill="#51b978"></path><path d="M0 -389.4C56.9 -387.9 113.9 -386.4 147 -354.8C180 -323.2 189.3 -261.5 226.3 -226.3C263.3 -191.1 328 -182.3 359.8 -149C391.6 -115.7 390.5 -57.9 389.4 0L0 0Z" fill="#88cd9d"></path><path d="M0 -292C42.7 -290.9 85.4 -289.8 110.2 -266.1C135 -242.4 142 -196.1 169.7 -169.7C197.4 -143.3 246 -136.7 269.8 -111.8C293.7 -86.8 292.9 -43.4 292 0L0 0Z" fill="#b8e2c4"></path><path d="M0 -194.7C28.5 -193.9 56.9 -193.2 73.5 -177.4C90 -161.6 94.6 -130.7 113.1 -113.1C131.6 -95.5 164 -91.2 179.9 -74.5C195.8 -57.9 195.2 -28.9 194.7 0L0 0Z" fill="#e8f5eb"></path><path d="M0 -97.3C14.2 -97 28.5 -96.6 36.7 -88.7C45 -80.8 47.3 -65.4 56.6 -56.6C65.8 -47.8 82 -45.6 89.9 -37.3C97.9 -28.9 97.6 -14.5 97.3 0L0 0Z" fill="#ffffff"></path></g></svg>