<svg id="visual" viewBox="0 0 900 600" width="900" height="600" xmlns="http://www.w3.org/2000/svg" xmlns:xlink="http://www.w3.org/1999/xlink" version="1.1"><path d="M0 291L21.5 296.8C43 302.7 86 314.3 128.8 331C171.7 347.7 214.3 369.3 257.2 378.5C300 387.7 343 384.3 385.8 370.7C428.7 357 471.3 333 514.2 312C557 291 600 273 642.8 281.7C685.7 290.3 728.3 325.7 771.2 341.8C814 358 857 355 878.5 353.5L900 352L900 601L878.5 601C857 601 814 601 771.2 601C728.3 601 685.7 601 642.8 601C600 601 557 601 514.2 601C471.3 601 428.7 601 385.8 601C343 601 300 601 257.2 601C214.3 601 171.7 601 128.8 601C86 601 43 601 21.5 601L0 601Z" fill="#2bae66"></path><path d="M0 364L21.5 377.2C43 390.3 86 416.7 128.8 427.2C171.7 437.7 214.3 432.3 257.2 425.5C300 418.7 343 410.3 385.8 398.2C428.7 386 471.3 370 514.2 369C557 368 600 382 642.8 396.8C685.7 411.7 728.3 427.3 771.2 433.8C814 440.3 857 437.7 878.5 436.3L900 435L900 601L878.5 601C857 601 814 601 771.2 601C728.3 601 685.7 601 642.8 601C600 601 557 601 514.2 601C471.3 601 428.7 601 385.8 601C343 601 300 601 257.2 601C214.3 601 171.7 601 128.8 601C86 601 43 601 21.5 601L0 601Z" fill="#53c777"></path><path d="M0 402L21.5 415.7C43 429.3 86 456.7 128.8 473.5C171.7 490.3 214.3 496.7 257.2 484.8C300 473 343 443 385.8 435C428.7 427 471.3 441 514.2 451.7C557 462.3 600 469.7 642.8 472.2C685.7 474.7 728.3 472.3 771.2 475.2C814 478 857 486 878.5 490L900 494L900 601L878.5 601C857 601 814 601 771.2 601C728.3 601 685.7 601 642.8 601C600 601 557 601 514.2 601C471.3 601 428.7 601 385.8 601C343 601 300 601 257.2 601C214.3 601 171.7 601 128.8 601C86 601 43 601 21.5 601L0 601Z" fill="#76e187"></path><path d="M0 493L21.5 499.8C43 506.7 86 520.3 128.8 524.2C171.7 528 214.3 522 257.2 513.2C300 504.3 343 492.7 385.8 499.2C428.7 505.7 471.3 530.3 514.2 534C557 537.7 600 520.3 642.8 516.3C685.7 512.3 728.3 521.7 771.2 527.7C814 533.7 857 536.3 878.5 537.7L900 539L900 601L878.5 601C857 601 814 601 771.2 601C728.3 601 685.7 601 642.8 601C600 601 557 601 514.2 601C471.3 601 428.7 601 385.8 601C343 601 300 601 257.2 601C214.3 601 171.7 601 128.8 601C86 601 43 601 21.5 601L0 601Z" fill="#98fb98"></path></svg>